<?xml version="1.0" encoding="UTF-8" standalone="no"?>
<!-- Created with Inkscape (http://www.inkscape.org/) -->

<svg
   xmlns:dc="http://purl.org/dc/elements/1.1/"
   xmlns:cc="http://creativecommons.org/ns#"
   xmlns:rdf="http://www.w3.org/1999/02/22-rdf-syntax-ns#"
   xmlns:svg="http://www.w3.org/2000/svg"
   xmlns="http://www.w3.org/2000/svg"
   xmlns:sodipodi="http://sodipodi.sourceforge.net/DTD/sodipodi-0.dtd"
   xmlns:inkscape="http://www.inkscape.org/namespaces/inkscape"
   version="1.1"
   id="svg2"
   xml:space="preserve"
   width="140"
   height="140"
   viewBox="0 0 140 140"
   sodipodi:docname="logo.svg"
   inkscape:version="0.92.1 r15371"><metadata
     id="metadata8"><rdf:RDF><cc:Work
         rdf:about=""><dc:format>image/svg+xml</dc:format><dc:type
           rdf:resource="http://purl.org/dc/dcmitype/StillImage" /><dc:title /></cc:Work></rdf:RDF></metadata><defs
     id="defs6"><radialGradient
       fx="0"
       fy="0"
       cx="0"
       cy="0"
       r="1"
       gradientUnits="userSpaceOnUse"
       gradientTransform="matrix(400,0,0,-400,400,400)"
       spreadMethod="pad"
       id="radialGradient28"><stop
         style="stop-opacity:1;stop-color:#4d4d4d"
         offset="0"
         id="stop24" /><stop
         style="stop-opacity:1;stop-color:#333333"
         offset="1"
         id="stop26" /></radialGradient><clipPath
       clipPathUnits="userSpaceOnUse"
       id="clipPath38"><path
         d="M 0,800 H 800 V 0 H 0 Z"
         id="path36"
         inkscape:connector-curvature="0" /></clipPath></defs><sodipodi:namedview
     pagecolor="#ffffff"
     bordercolor="#666666"
     borderopacity="1"
     objecttolerance="10"
     gridtolerance="10"
     guidetolerance="10"
     inkscape:pageopacity="0"
     inkscape:pageshadow="2"
     inkscape:window-width="1858"
     inkscape:window-height="1057"
     id="namedview4"
     showgrid="false"
     inkscape:zoom="3.5399997"
     inkscape:cx="166.66984"
     inkscape:cy="77.354949"
     inkscape:window-x="54"
     inkscape:window-y="-8"
     inkscape:window-maximized="1"
     inkscape:current-layer="g12" /><g
     id="g10"
     inkscape:groupmode="layer"
     inkscape:label="13"
     transform="matrix(1.3333333,0,0,-1.3333333,0,140)"><g
       id="g12"
       transform="scale(0.1875)"><g
         id="g14"
         transform="scale(0.70000002)"><g
           id="g20"><g
             id="g22"><path
               d="M 0,0 H 800 V 800 H 0 Z"
               style="fill:url(#radialGradient28);stroke:none"
               id="path30"
               inkscape:connector-curvature="0" /></g></g></g></g><g
       id="g32"
       transform="scale(0.13125)"><g
         transform="translate(288.14304,444.15358)"
         id="g40"><path
           inkscape:connector-curvature="0"
           id="path42"
           style="fill:#ff9600;fill-opacity:1;fill-rule:nonzero;stroke:none"
           d="m 0,0 c 0,-27.628 17.426,-60.655 35.556,-60.655 h 173.319 c 18.131,0 36.675,33.027 36.675,60.655" /></g><g
         transform="translate(283.24904,436.36448)"
         id="g44"><path
           inkscape:connector-curvature="0"
           id="path46"
           style="fill:#f4f0e4;fill-opacity:1;fill-rule:nonzero;stroke:none"
           d="m 0,0 -15.468,1.181 4.385,-23.718 18.887,-2.194 z" /></g><g
         transform="translate(262.09964,438.68188)"
         id="g48"><path
           inkscape:connector-curvature="0"
           id="path50"
           style="fill:#ff9600;fill-opacity:1;fill-rule:nonzero;stroke:none"
           d="m 0,0 5.471,-22.979 c 0,0 -50.648,13.587 -82.069,28.451 -17.723,8.382 -36.548,15.1 -77.91,8.971 0,0 -11.6,9.411 -12.257,17.51 0,0 57.576,13.395 99.796,-8.099 C -51.129,15.792 -24.73,2.845 0,0" /></g><g
         transform="translate(521.21584,424.56568)"
         id="g52"><path
           inkscape:connector-curvature="0"
           id="path54"
           style="fill:#f4f0e4;fill-opacity:1;fill-rule:nonzero;stroke:none"
           d="m 0,0 c 0,0 -5.837,-51.613 -61.276,-31.187 0,0 47.27,-12.913 61.276,31.187" /></g><g
         transform="translate(326.87694,438.68188)"
         id="g56"><path
           inkscape:connector-curvature="0"
           id="path58"
           style="fill:#f4f0e4;fill-opacity:1;fill-rule:nonzero;stroke:none"
           d="m 0,0 c 0,0 -24.982,5.363 -30.346,0 -2.571,-2.569 0,-9.775 3.501,-14.116 0,0 -4.669,10.395 26.845,14.116" /></g><g
         transform="translate(424.06054,651.76978)"
         id="g60"><path
           inkscape:connector-curvature="0"
           id="path62"
           style="fill:#ffffff;fill-opacity:1;fill-rule:nonzero;stroke:none"
           d="M 0,0 C 0,0 3.729,8.613 -4.185,12.027 -4.185,12.027 10.286,7.876 0,0 m -7.827,15.936 c -2.569,8.227 -11.526,5.42 -11.526,5.42 8.909,9.408 11.526,-5.42 11.526,-5.42 m 11.508,7.512 c -7.829,8.532 -18.15,12.213 -22.59,7.729 -6.068,-6.124 -3.939,-11.579 0.992,-17.719 L -28.594,3.771 C -29.411,3.03 -29.474,1.768 -28.73,0.95 l 6.989,-7.703 C -21,-7.57 -19.737,-7.63 -18.922,-6.89 l 10.758,9.761 c 6.018,-5.697 11.82,-8.683 17.61,-2.591 4.349,4.573 2.063,14.636 -5.765,23.168" /></g><g
         transform="translate(451.62304,590.52858)"
         id="g64"><path
           inkscape:connector-curvature="0"
           id="path66"
           style="fill:#ffffff;fill-opacity:1;fill-rule:nonzero;stroke:none"
           d="M 0,0 C 7.737,0.25 10.982,9.484 10.982,9.484 11.73,-3.495 -7.738,-0.25 0,0 m 4.186,31.008 c -1.22,2.172 3.426,7.289 3.426,7.289 -2.745,1.545 -6.739,-6.036 -6.739,-6.036 -5.49,5.241 -12.978,5.989 -12.978,5.989 5.743,-2.687 7.249,-4.868 7.507,-6.221 -8.949,-1.156 -15.87,-8.787 -15.87,-18.051 0,-10.063 8.159,-18.222 18.222,-18.222 10.061,0 18.22,8.159 18.22,18.222 0,7.794 -4.905,14.428 -11.788,17.03" /></g><g
         transform="translate(412.91114,711.49238)"
         id="g68"><path
           inkscape:connector-curvature="0"
           id="path70"
           style="fill:#ffffff;fill-opacity:1;fill-rule:nonzero;stroke:none"
           d="m 0,0 c 0,0 7.738,2.746 14.478,-1.997 0,0 -5.446,1.74 -14.478,1.997 m -10.379,-10.483 c -1.46,0 -2.642,1.31 -2.642,2.928 0,1.617 1.182,2.928 2.642,2.928 1.46,0 2.642,-1.311 2.642,-2.928 0,-1.618 -1.182,-2.928 -2.642,-2.928 M 3.245,3.744 c -9.236,0 -16.724,-4.862 -16.724,-10.857 0,-5.996 7.488,-10.858 16.724,-10.858 9.235,0 16.723,4.862 16.723,10.858 0,5.995 -7.488,10.857 -16.723,10.857" /></g><g
         transform="translate(399.63284,539.24338)"
         id="g72"><path
           inkscape:connector-curvature="0"
           id="path74"
           style="fill:#ffffff;fill-opacity:1;fill-rule:nonzero;stroke:none"
           d="m 0,0 c 0,0 3.271,-9.232 4.741,-12.638 3.958,-9.174 24.212,-30.451 2.996,-61.151 0,0 -0.8,-4.743 8.71,3.245 0,0 33.525,19.9 -0.395,78.056 C 16.052,7.512 9.177,-0.365 0,0" /></g><g
         transform="translate(399.28714,540.25418)"
         id="g76"><path
           inkscape:connector-curvature="0"
           id="path78"
           style="fill:#ffffff;fill-opacity:1;fill-rule:nonzero;stroke:none"
           d="m 0,0 c 0,0 8.236,-1.264 15.762,7.512 0,0 -2.128,3.32 -9.449,0.702 0,0 -3.494,7.444 9.449,16.098 C 20.149,27.245 4.19,22.888 3.256,6.939 3.256,6.939 -2.345,1.633 0,0" /></g><g
         transform="translate(457.28124,529.83328)"
         id="g80"><path
           inkscape:connector-curvature="0"
           id="path82"
           style="fill:#ffffff;fill-opacity:1;fill-rule:nonzero;stroke:none"
           d="m 0,0 c 0,0 -24.71,-10.733 -18.719,34.943 0,0 28.447,-5.241 21.461,-33.946 0,0 -0.494,16.225 -14.471,24.711 0,0 10.982,-13.479 11.729,-25.708" /></g><g
         transform="translate(482.88184,667.02218)"
         id="g84"><path
           inkscape:connector-curvature="0"
           id="path86"
           style="fill:#ffffff;fill-opacity:1;fill-rule:nonzero;stroke:none"
           d="M 0,0 C -1.306,-1.175 -2.92,-1.508 -3.605,-0.747 -4.289,0.015 -3.784,1.584 -2.476,2.759 -1.17,3.934 0.445,4.268 1.129,3.506 1.813,2.745 1.31,1.175 0,0 m -10.723,-0.26 c -1.602,-0.997 -3.43,-0.954 -4.085,0.097 -0.653,1.052 0.116,2.713 1.72,3.71 1.604,0.997 3.434,0.953 4.085,-0.099 0.656,-1.052 -0.116,-2.711 -1.72,-3.708 m -1.543,-11.76 c -1.067,0 -1.933,0.667 -1.933,1.49 0,0.822 0.866,1.489 1.933,1.489 1.071,0 1.936,-0.667 1.936,-1.489 0,-0.823 -0.865,-1.49 -1.936,-1.49 m -4.316,22.453 c -2.043,-1.657 -4.453,-2.073 -5.384,-0.925 -0.929,1.145 -0.025,3.419 2.019,5.076 2.043,1.657 4.453,2.07 5.384,0.924 0.927,-1.146 0.025,-3.416 -2.019,-5.075 m -14.719,2.72 c -1.296,-1.143 -3.005,-1.325 -3.815,-0.405 -0.812,0.92 -0.418,2.595 0.882,3.737 1.297,1.142 3.007,1.324 3.819,0.404 0.811,-0.921 0.418,-2.595 -0.886,-3.736 m 29.602,16.144 11.996,-29.52 -36.93,34.64 z m 13.36,-30.848 -12.73,31.324 -0.277,0.231 -26.457,5.434 -0.339,-0.653 0.04,-0.037 -14.13,-20.094 34.091,-37.315 19.196,20.694 z" /></g><g
         transform="translate(474.97164,693.38888)"
         id="g88"><path
           inkscape:connector-curvature="0"
           id="path90"
           style="fill:#ffffff;fill-opacity:1;fill-rule:nonzero;stroke:none"
           d="M 0,0 C -0.681,-0.468 -0.412,-2.045 0.604,-3.521 1.62,-4.999 2.995,-5.815 3.678,-5.347 4.358,-4.878 4.089,-3.301 3.074,-1.825 2.057,-0.348 0.682,0.469 0,0" /></g><g
         transform="translate(398.38764,603.23658)"
         id="g92"><path
           inkscape:connector-curvature="0"
           id="path94"
           style="fill:#ffffff;fill-opacity:1;fill-rule:nonzero;stroke:none"
           d="m 0,0 c 0,0 -10.495,16.69 -18.304,5.407 -5.782,-8.355 -18.925,-36.821 4.077,-40.435 6.708,-1.054 11.83,-1.492 23.628,13.396 C 13.063,-17.012 25.462,-3.661 0,0" /></g><g
         transform="translate(402.62594,603.15208)"
         id="g96"><path
           inkscape:connector-curvature="0"
           id="path98"
           style="fill:#ffffff;fill-opacity:1;fill-rule:nonzero;stroke:none"
           d="m 0,0 c 0,0 8.102,4.099 11.412,-5.917 0,0 -2.478,5.73 -11.412,5.917" /></g><g
         transform="translate(398.46044,605.43188)"
         id="g100"><path
           inkscape:connector-curvature="0"
           id="path102"
           style="fill:#ffffff;fill-opacity:1;fill-rule:nonzero;stroke:none"
           d="m 0,0 c 0,0 7.583,26.25 -6.732,18.854 0,0 -5.038,2.012 -0.581,3.162 6.146,1.586 15.746,1.99 9.032,-23.033 L 0.375,-1.708 Z" /></g><g
         transform="translate(396.26464,607.63358)"
         id="g104"><path
           inkscape:connector-curvature="0"
           id="path106"
           style="fill:#ffffff;fill-opacity:1;fill-rule:nonzero;stroke:none"
           d="m 0,0 c 0,0 -0.027,6.437 -9.533,5.673 0,0 6.327,-0.06 9.533,-5.673" /></g><g
         transform="translate(391.70894,488.48268)"
         id="g108"><path
           inkscape:connector-curvature="0"
           id="path110"
           style="fill:#ffffff;fill-opacity:1;fill-rule:nonzero;stroke:none"
           d="m 0,0 c 0,0 -24.711,-10.733 -18.72,34.943 0,0 28.447,-5.241 21.46,-33.945 0,0 -0.494,16.224 -14.471,24.71 0,0 10.983,-13.478 11.731,-25.708" /></g><g
         transform="matrix(2.6870583,0,0,2.6870583,221.20453,205.53668)"
         id="g112"><path
           inkscape:connector-curvature="0"
           id="path114"
           style="fill:#b90800;fill-opacity:1;fill-rule:nonzero;stroke:none"
           d="m 0,0 h 5.929 c 3.088,0 5.097,0.605 6.031,1.816 0.933,1.21 1.399,3.992 1.399,8.345 0,4.065 -0.556,6.763 -1.666,8.096 -1.11,1.333 -3.342,1.999 -6.695,1.999 H 0 Z m 0,22.154 h 4.231 c 3.243,0 5.374,0.556 6.396,1.666 1.022,1.111 1.533,3.554 1.533,7.329 0,4.109 -0.451,6.63 -1.35,7.563 -0.899,0.933 -3.226,1.399 -6.979,1.399 L 0,40.111 Z M -15.825,0 h 4.764 v 40.111 h -4.764 v 2.033 H 8.928 c 4.619,0 8.268,-0.951 10.944,-2.849 2.676,-1.899 4.015,-4.47 4.015,-7.713 0,-2.687 -1.067,-4.869 -3.199,-6.546 -2.132,-1.677 -5.297,-2.814 -9.495,-3.415 v -0.566 c 4.798,-0.4 8.407,-1.527 10.828,-3.381 2.42,-1.855 3.631,-4.403 3.631,-7.646 0,-3.754 -1.544,-6.73 -4.631,-8.928 -3.086,-2.2 -7.273,-3.298 -12.56,-3.298 h -24.286 z" /></g><g
         transform="matrix(2.6870583,0,0,2.6870583,307.67863,199.62998)"
         id="g116"><path
           inkscape:connector-curvature="0"
           id="path118"
           style="fill:#b90800;fill-opacity:1;fill-rule:nonzero;stroke:none"
           d="M 0,0 V 2.198 H 5.397 V 42.31 h -4.63 v 2.032 h 36.979 l 0.132,-11.66 h -2.232 c -1.51,3.775 -3.042,6.324 -4.597,7.645 -1.554,1.321 -3.82,1.983 -6.796,1.983 H 16.59 V 24.086 c 0.179,-0.022 0.384,-0.038 0.617,-0.05 0.233,-0.011 0.549,-0.015 0.949,-0.015 2.422,0 4.254,0.636 5.497,1.914 1.244,1.277 2.055,3.348 2.432,6.213 h 2.232 V 13.227 h -2.232 c -0.244,3.064 -0.999,5.262 -2.265,6.594 -1.266,1.333 -3.242,2 -5.93,2 h -1.3 V 2.198 h 7.43 c 3.665,0 6.53,0.967 8.595,2.899 2.066,1.932 3.687,5.163 4.864,9.695 h 2.099 L 39.113,0 Z" /></g><g
         transform="matrix(2.6870583,0,0,2.6870583,432.01661,198.19456)"
         id="g120"><path
           inkscape:connector-curvature="0"
           id="path122"
           style="fill:#b90800;fill-opacity:1;fill-rule:nonzero;stroke:none"
           d="M 0,0 V 13.026 H 2.6 C 3.732,9.251 5.415,6.397 7.646,4.465 c 2.233,-1.933 4.97,-2.899 8.213,-2.899 2.91,0 5.32,0.778 7.229,2.332 1.91,1.555 2.865,3.533 2.865,5.93 0,1.289 -0.227,2.349 -0.682,3.182 -0.456,0.833 -1.227,1.605 -2.316,2.316 -1.243,0.821 -3.698,1.654 -7.362,2.498 -1.356,0.312 -2.388,0.555 -3.099,0.733 -4.287,1.089 -7.402,2.687 -9.345,4.797 -1.943,2.11 -2.915,4.941 -2.915,8.496 0,4.152 1.293,7.512 3.881,10.077 2.588,2.565 5.97,3.848 10.145,3.848 1.711,0 3.303,-0.239 4.781,-0.716 1.477,-0.478 2.869,-1.194 4.18,-2.149 l 2.432,1.966 h 2.132 L 28.052,33.148 H 25.82 c -0.867,3.444 -2.309,6.065 -4.331,7.864 -2.021,1.799 -4.542,2.697 -7.562,2.697 -2.511,0 -4.571,-0.61 -6.181,-1.832 -1.609,-1.221 -2.415,-2.765 -2.415,-4.63 0,-2.799 2.966,-4.853 8.896,-6.164 0.799,-0.177 1.41,-0.311 1.832,-0.399 5.53,-1.289 9.412,-3.116 11.643,-5.481 2.233,-2.365 3.349,-5.724 3.349,-10.077 0,-4.486 -1.428,-8.213 -4.281,-11.178 -2.855,-2.965 -6.448,-4.447 -10.778,-4.447 -2.198,0 -4.131,0.249 -5.797,0.75 C 8.53,0.75 6.975,1.544 5.531,2.632 L 2.467,0 Z" /></g><g
         transform="matrix(2.6870583,0,0,2.6870583,553.76614,199.62998)"
         id="g124"><path
           inkscape:connector-curvature="0"
           id="path126"
           style="fill:#b90800;fill-opacity:1;fill-rule:nonzero;stroke:none"
           d="M 0,0 V 2.198 H 5.463 V 42.31 H 3.064 c -2.909,0 -5.202,-0.9 -6.879,-2.7 -1.676,-1.798 -3.16,-4.997 -4.448,-9.593 h -1.765 l 0.533,14.325 h 41.344 l 0.566,-14.325 h -1.766 c -1.222,4.463 -2.687,7.629 -4.398,9.494 -1.71,1.865 -3.975,2.799 -6.795,2.799 H 16.923 V 2.198 h 5.464 V 0 Z" /></g><g
         transform="matrix(2.6870583,0,0,2.6870583,201.77199,144.24353)"
         id="g128"><path
           inkscape:connector-curvature="0"
           id="path130"
           style="fill:#b90800;fill-opacity:1;fill-rule:nonzero;stroke:none"
           d="M 0,0 H 2.622 C 6.05,0 6.958,2.57 6.958,4.688 6.958,7.41 5.949,9.226 2.572,9.226 H 0 Z M -8.469,15.175 H 5.748 c 7.209,0 9.679,-4.437 9.679,-9.378 0,-5.242 -2.117,-7.814 -6.049,-8.773 v -0.099 c 5.393,-0.757 5.696,-4.134 5.797,-8.974 0.151,-7.109 0.403,-7.814 1.614,-8.318 v -0.454 H 7.664 c -0.656,1.21 -0.908,3.226 -0.908,7.31 0,6.251 -0.858,7.563 -3.529,7.563 H 0 v -14.873 h -8.469 z" /></g><g
         transform="matrix(2.6870583,0,0,2.6870583,256.77392,185.01911)"
         id="g132"><path
           inkscape:connector-curvature="0"
           id="path134"
           style="fill:#b90800;fill-opacity:1;fill-rule:nonzero;stroke:none"
           d="M 0,0 H 20.82 V -6.856 H 8.469 v -7.21 h 11.596 v -6.856 H 8.469 v -8.218 h 12.906 v -6.856 H 0 Z" /></g><g
         transform="matrix(2.6870583,0,0,2.6870583,365.01347,151.42308)"
         id="g136"><path
           inkscape:connector-curvature="0"
           id="path138"
           style="fill:#b90800;fill-opacity:1;fill-rule:nonzero;stroke:none"
           d="m 0,0 c 0,5.243 -0.606,7.562 -3.428,7.562 -3.379,0 -3.68,-3.226 -3.68,-12.654 0,-10.687 0.352,-13.461 3.882,-13.461 3.125,0 3.478,3.58 3.528,9.176 h 8.167 v -1.26 c 0,-7.764 -2.168,-13.561 -12.654,-13.561 -10.839,0 -11.695,8.116 -11.695,18.955 0,9.225 0.503,18.451 12.502,18.451 7.461,0 11.545,-3.226 11.545,-11.696 V 0 Z" /></g><path
         inkscape:connector-curvature="0"
         id="path140"
         style="fill:#b90800;fill-opacity:1;fill-rule:nonzero;stroke:none;stroke-width:2.68705821"
         d="M 397.66042,185.01911 H 420.4198 V 88.295754 h -22.75938 z" /><g
         transform="matrix(2.6870583,0,0,2.6870583,457.66969,142.88952)"
         id="g142"><path
           inkscape:connector-curvature="0"
           id="path144"
           style="fill:#b90800;fill-opacity:1;fill-rule:nonzero;stroke:none"
           d="m 0,0 h 2.319 c 3.378,0 4.185,2.116 4.185,4.536 0,2.774 -0.907,4.892 -4.336,4.892 H 0 Z M -8.469,15.679 H 4.639 c 8.924,0 10.637,-6.453 10.637,-10.941 0,-6.453 -3.076,-10.99 -11.545,-10.99 H 0 v -14.065 h -8.469 z" /></g><g
         transform="matrix(2.6870583,0,0,2.6870583,510.23526,185.01911)"
         id="g146"><path
           inkscape:connector-curvature="0"
           id="path148"
           style="fill:#b90800;fill-opacity:1;fill-rule:nonzero;stroke:none"
           d="M 0,0 H 20.82 V -6.856 H 8.47 v -7.21 h 11.594 v -6.856 H 8.47 v -8.218 h 12.906 v -6.856 H 0 Z" /></g><g
         transform="matrix(2.6870583,0,0,2.6870583,596.80099,117.82679)"
         id="g150"><path
           inkscape:connector-curvature="0"
           id="path152"
           style="fill:#b90800;fill-opacity:1;fill-rule:nonzero;stroke:none"
           d="m 0,0 v -1.26 c 0,-2.722 0.755,-4.79 3.679,-4.79 2.975,0 3.832,2.219 3.832,4.285 0,7.764 -15.477,3.428 -15.477,16.889 0,5.747 3.075,10.587 11.797,10.587 8.47,0 11.495,-4.285 11.495,-9.831 V 15.023 H 7.158 c 0,1.714 -0.201,2.975 -0.705,3.782 -0.505,0.857 -1.311,1.26 -2.572,1.26 -2.116,0 -3.378,-1.26 -3.378,-3.882 0,-7.512 15.477,-3.731 15.477,-16.435 0,-8.167 -4.536,-11.443 -12.301,-11.443 -6.15,0 -11.846,1.864 -11.846,9.376 V 0 Z" /></g><g
         transform="translate(273.9346,28.002)"
         id="g154"><path
           inkscape:connector-curvature="0"
           id="path156"
           style="fill:#ffffff;fill-opacity:1;fill-rule:evenodd;stroke:none"
           d="m 0,0 c 0,-0.68 0.104,-1.258 0.318,-1.736 0.211,-0.481 0.502,-0.84 0.869,-1.08 0.366,-0.248 0.77,-0.37 1.208,-0.37 H 2.402 V -5.061 C 2.154,-5.104 1.895,-5.129 1.621,-5.129 c -0.601,0 -1.16,0.127 -1.672,0.381 -0.513,0.256 -0.959,0.619 -1.332,1.094 -0.375,0.468 -0.658,1.027 -0.853,1.666 -0.194,0.64 -0.289,1.332 -0.289,2.076 0,1.57 0.382,2.795 1.152,3.676 0.768,0.877 1.777,1.314 3.027,1.314 0.268,0 0.516,-0.017 0.748,-0.049 V 3.217 H 2.377 C 1.916,3.217 1.504,3.09 1.143,2.828 0.779,2.566 0.5,2.188 0.301,1.699 0.1,1.215 0,0.646 0,0 m 2.402,-3.186 c 0.438,0 0.84,0.118 1.202,0.346 0.367,0.233 0.66,0.582 0.878,1.059 0.215,0.48 0.325,1.072 0.325,1.781 0,0.674 -0.11,1.248 -0.325,1.73 C 4.264,2.213 3.969,2.586 3.596,2.836 3.232,3.09 2.836,3.211 2.402,3.217 V 5.029 C 2.813,4.971 3.172,4.863 3.488,4.705 3.988,4.457 4.475,4.07 4.945,3.561 V 7.27 c 0,0.519 0.104,0.906 0.311,1.173 0.207,0.268 0.498,0.395 0.877,0.395 0.381,0 0.678,-0.121 0.879,-0.367 0.211,-0.241 0.31,-0.6 0.31,-1.069 V -3.689 c 0,-0.481 -0.109,-0.84 -0.328,-1.081 -0.223,-0.24 -0.512,-0.359 -0.861,-0.359 -0.344,0 -0.627,0.121 -0.852,0.373 -0.224,0.244 -0.336,0.604 -0.336,1.067 v 0.248 c -0.338,-0.393 -0.672,-0.7 -1,-0.944 C 3.617,-4.629 3.264,-4.812 2.875,-4.943 2.725,-4.988 2.564,-5.029 2.402,-5.061 Z" /></g><g
         transform="translate(285.8877,28.7988)"
         id="g158"><path
           inkscape:connector-curvature="0"
           id="path160"
           style="fill:#ffffff;fill-opacity:1;fill-rule:evenodd;stroke:none"
           d="M 0,0 H 2.275 V -1.432 H 0 C 0.002,-2 0.115,-2.504 0.34,-2.939 0.562,-3.379 0.859,-3.705 1.236,-3.922 1.555,-4.117 1.898,-4.223 2.275,-4.248 v -1.674 c -1.492,0.049 -2.658,0.512 -3.505,1.379 -0.901,0.922 -1.346,2.172 -1.346,3.746 0,0.746 0.109,1.436 0.332,2.072 0.221,0.635 0.543,1.182 0.967,1.637 0.422,0.451 0.947,0.799 1.568,1.045 0.596,0.232 1.26,0.352 1.984,0.359 V 2.568 H 2.271 C 1.645,2.568 1.129,2.354 0.727,1.924 0.324,1.486 0.08,0.846 0,0 m 2.275,-5.922 v 1.674 c 0.063,-0.006 0.125,-0.01 0.188,-0.01 0.303,0 0.576,0.035 0.824,0.108 0.248,0.064 0.486,0.181 0.725,0.334 0.232,0.146 0.447,0.308 0.644,0.478 0.198,0.174 0.448,0.406 0.764,0.701 0.131,0.11 0.314,0.168 0.551,0.168 0.258,0 0.468,-0.07 0.629,-0.213 0.16,-0.14 0.238,-0.341 0.238,-0.597 C 6.838,-3.508 6.752,-3.77 6.572,-4.08 6.393,-4.381 6.125,-4.676 5.764,-4.953 5.408,-5.232 4.959,-5.463 4.41,-5.65 3.865,-5.832 3.244,-5.926 2.535,-5.926 c -0.088,0 -0.174,0.002 -0.26,0.004 m 0,5.922 h 2.28 C 4.496,0.857 4.264,1.502 3.857,1.926 3.459,2.352 2.928,2.566 2.275,2.568 V 4.316 H 2.354 C 3.338,4.316 4.178,4.115 4.881,3.695 5.588,3.279 6.111,2.744 6.463,2.09 6.812,1.434 6.984,0.762 6.984,0.078 6.984,-0.549 6.805,-0.965 6.443,-1.15 6.078,-1.336 5.572,-1.432 4.916,-1.432 H 2.275 Z" /></g><g
         transform="translate(303.0928,26.1621)"
         id="g162"><path
           inkscape:connector-curvature="0"
           id="path164"
           style="fill:#ffffff;fill-opacity:1;fill-rule:evenodd;stroke:none"
           d="m 0,0 c 0,-0.691 -0.172,-1.285 -0.508,-1.779 -0.342,-0.496 -0.84,-0.873 -1.494,-1.129 -0.662,-0.254 -1.469,-0.381 -2.412,-0.381 -0.902,0 -1.678,0.141 -2.322,0.414 -0.651,0.277 -1.119,0.627 -1.428,1.037 -0.307,0.412 -0.459,0.83 -0.459,1.248 0,0.279 0.094,0.512 0.293,0.709 0.197,0.197 0.443,0.297 0.748,0.297 0.262,0 0.465,-0.066 0.607,-0.199 0.143,-0.119 0.276,-0.307 0.407,-0.537 0.256,-0.448 0.564,-0.784 0.922,-1.004 0.361,-0.223 0.849,-0.334 1.472,-0.334 0.502,0 0.916,0.113 1.238,0.334 0.323,0.228 0.485,0.48 0.485,0.771 0,0.446 -0.168,0.766 -0.504,0.969 -0.334,0.199 -0.885,0.398 -1.652,0.58 -0.866,0.215 -1.573,0.436 -2.114,0.676 -0.543,0.238 -0.976,0.549 -1.302,0.935 -0.329,0.387 -0.489,0.864 -0.489,1.43 0,0.498 0.149,0.979 0.451,1.43 0.299,0.443 0.745,0.801 1.331,1.07 0.585,0.27 1.294,0.399 2.123,0.399 0.652,0 1.234,-0.065 1.752,-0.202 0.523,-0.132 0.955,-0.316 1.3,-0.545 0.35,-0.226 0.612,-0.478 0.791,-0.753 C -0.582,5.158 -0.49,4.891 -0.49,4.625 -0.49,4.336 -0.588,4.1 -0.779,3.916 -0.973,3.736 -1.25,3.641 -1.605,3.641 c -0.258,0 -0.475,0.07 -0.663,0.218 -0.175,0.147 -0.386,0.368 -0.619,0.662 -0.189,0.247 -0.412,0.45 -0.67,0.592 -0.261,0.149 -0.609,0.225 -1.05,0.225 -0.457,0 -0.834,-0.102 -1.135,-0.297 C -6.041,4.854 -6.191,4.609 -6.191,4.324 -6.191,4.057 -6.08,3.84 -5.859,3.674 -5.639,3.502 -5.344,3.359 -4.967,3.25 -4.594,3.143 -4.072,3.008 -3.418,2.846 -2.641,2.656 -2,2.434 -1.508,2.166 -1.01,1.9 -0.639,1.59 -0.385,1.23 -0.127,0.869 0,0.459 0,0" /></g><g
         transform="translate(306.4912,34.2676)"
         id="g166"><path
           inkscape:connector-curvature="0"
           id="path168"
           style="fill:#ffffff;fill-opacity:1;fill-rule:evenodd;stroke:none"
           d="m 0,0 c -0.352,0 -0.648,0.113 -0.896,0.324 -0.25,0.215 -0.375,0.518 -0.375,0.912 0,0.354 0.128,0.651 0.382,0.881 C -0.637,2.35 -0.338,2.461 0,2.461 0.324,2.461 0.611,2.357 0.865,2.152 1.117,1.937 1.242,1.635 1.242,1.236 1.242,0.85 1.119,0.549 0.875,0.328 0.629,0.117 0.336,0 0,0 m 1.242,-2.592 v -7.273 c 0,-0.504 -0.119,-0.883 -0.357,-1.143 -0.239,-0.26 -0.545,-0.387 -0.914,-0.387 -0.367,0 -0.668,0.129 -0.897,0.399 -0.232,0.262 -0.345,0.642 -0.345,1.131 v 7.195 c 0,0.498 0.113,0.877 0.345,1.123 0.229,0.252 0.53,0.377 0.897,0.377 0.369,0 0.674,-0.125 0.914,-0.377 0.238,-0.246 0.357,-0.599 0.357,-1.045" /></g><g
         transform="translate(314.7139,20.8945)"
         id="g170"><path
           inkscape:connector-curvature="0"
           id="path172"
           style="fill:#ffffff;fill-opacity:1;fill-rule:evenodd;stroke:none"
           d="m 0,0 v -1.75 l -0.172,-0.002 c -0.863,0 -1.639,0.121 -2.32,0.365 -0.684,0.241 -1.205,0.557 -1.576,0.938 -0.368,0.387 -0.549,0.779 -0.549,1.185 0,0.311 0.103,0.555 0.308,0.746 0.209,0.198 0.459,0.293 0.756,0.293 0.367,0 0.692,-0.16 0.969,-0.484 0.135,-0.166 0.271,-0.336 0.418,-0.504 0.146,-0.164 0.305,-0.312 0.48,-0.433 0.172,-0.12 0.385,-0.209 0.631,-0.266 0.244,-0.057 0.528,-0.09 0.848,-0.09 0.068,0 0.139,0 0.207,0.002 m -2.422,7.172 c 0,-1.014 0.223,-1.789 0.672,-2.311 C -1.305,4.344 -0.729,4.08 -0.023,4.08 H 0 V 2.275 C -0.246,2.23 -0.504,2.209 -0.777,2.209 c -0.842,0 -1.58,0.217 -2.209,0.646 -0.631,0.428 -1.114,1.032 -1.45,1.809 -0.339,0.772 -0.505,1.664 -0.505,2.68 0,0.75 0.103,1.435 0.304,2.041 0.209,0.609 0.498,1.125 0.881,1.541 0.383,0.42 0.822,0.732 1.32,0.945 0.495,0.207 1.04,0.315 1.639,0.315 0.281,0 0.547,-0.02 0.797,-0.063 v -1.799 h -0.043 c -0.719,0 -1.297,-0.271 -1.728,-0.818 C -2.201,8.957 -2.422,8.184 -2.422,7.172 M 0,4.08 C 0.408,4.086 0.799,4.197 1.158,4.414 1.531,4.641 1.838,4.975 2.066,5.43 2.305,5.883 2.42,6.428 2.42,7.072 2.42,8.102 2.193,8.896 1.74,9.469 1.299,10.031 0.717,10.313 0,10.324 v 1.799 c 0.387,-0.066 0.74,-0.184 1.055,-0.344 0.519,-0.273 1.006,-0.705 1.457,-1.287 v 0.342 c 0,0.434 0.103,0.771 0.322,1.008 0.213,0.246 0.49,0.361 0.824,0.361 0.487,0 0.811,-0.16 0.971,-0.476 0.156,-0.309 0.236,-0.764 0.236,-1.366 V 3.057 C 4.865,2.225 4.779,1.502 4.6,0.9 4.422,0.297 4.141,-0.195 3.742,-0.592 3.352,-0.982 2.84,-1.277 2.201,-1.467 1.604,-1.645 0.869,-1.74 0,-1.75 V 0 C 0.549,0.02 0.984,0.105 1.307,0.268 1.668,0.451 1.918,0.703 2.064,1.029 2.209,1.359 2.285,1.709 2.316,2.074 2.338,2.445 2.359,3.045 2.375,3.867 1.984,3.33 1.535,2.914 1.027,2.633 0.721,2.463 0.381,2.342 0,2.275 Z" /></g><g
         transform="translate(324.4072,31.7109)"
         id="g174"><path
           inkscape:connector-curvature="0"
           id="path176"
           style="fill:#ffffff;fill-opacity:1;fill-rule:evenodd;stroke:none"
           d="m 0,0 v -0.307 c 0.445,0.586 0.932,1.016 1.455,1.284 0.524,0.273 1.125,0.41 1.811,0.41 0.662,0 1.254,-0.143 1.777,-0.426 0.518,-0.293 0.908,-0.703 1.166,-1.229 0.168,-0.308 0.275,-0.64 0.322,-0.994 0.051,-0.361 0.076,-0.81 0.076,-1.363 v -4.684 c 0,-0.503 -0.117,-0.882 -0.345,-1.142 -0.231,-0.26 -0.53,-0.387 -0.899,-0.387 -0.375,0 -0.676,0.129 -0.91,0.399 -0.234,0.261 -0.349,0.642 -0.349,1.13 v 4.194 c 0,0.822 -0.118,1.463 -0.348,1.902 -0.229,0.438 -0.69,0.656 -1.379,0.656 -0.445,0 -0.854,-0.134 -1.221,-0.396 -0.371,-0.266 -0.64,-0.635 -0.81,-1.102 -0.125,-0.379 -0.19,-1.082 -0.19,-2.101 v -3.153 c 0,-0.505 -0.119,-0.892 -0.349,-1.148 -0.241,-0.254 -0.545,-0.381 -0.92,-0.381 -0.362,0 -0.657,0.129 -0.895,0.399 -0.23,0.261 -0.346,0.642 -0.346,1.13 v 7.274 c 0,0.476 0.104,0.834 0.313,1.07 0.207,0.236 0.492,0.352 0.855,0.352 0.217,0 0.42,-0.049 0.596,-0.157 C -0.412,1.127 -0.268,0.975 -0.162,0.764 -0.051,0.555 0,0.301 0,0" /></g><g
         transform="translate(335.624,28.7988)"
         id="g178"><path
           inkscape:connector-curvature="0"
           id="path180"
           style="fill:#ffffff;fill-opacity:1;fill-rule:evenodd;stroke:none"
           d="M 0,0 H 2.279 V -1.432 H 0 C 0.002,-2 0.117,-2.504 0.344,-2.939 c 0.218,-0.44 0.521,-0.766 0.89,-0.983 0.321,-0.195 0.668,-0.301 1.045,-0.326 v -1.674 c -1.494,0.049 -2.658,0.512 -3.508,1.379 -0.894,0.922 -1.345,2.172 -1.345,3.746 0,0.746 0.115,1.436 0.332,2.072 0.221,0.635 0.545,1.182 0.971,1.637 0.421,0.451 0.941,0.799 1.564,1.045 0.598,0.232 1.26,0.352 1.986,0.359 V 2.568 H 2.271 C 1.646,2.568 1.133,2.354 0.727,1.924 0.326,1.486 0.084,0.846 0,0 m 2.279,-5.922 v 1.674 c 0.061,-0.006 0.121,-0.01 0.186,-0.01 0.305,0 0.572,0.035 0.826,0.108 0.25,0.064 0.486,0.181 0.723,0.334 0.234,0.146 0.449,0.308 0.644,0.478 0.197,0.174 0.451,0.406 0.766,0.701 0.131,0.11 0.314,0.168 0.551,0.168 0.259,0 0.464,-0.07 0.629,-0.213 0.158,-0.14 0.24,-0.341 0.24,-0.597 0,-0.229 -0.088,-0.491 -0.27,-0.801 C 6.396,-4.381 6.127,-4.676 5.768,-4.953 5.41,-5.232 4.961,-5.463 4.412,-5.65 3.869,-5.832 3.244,-5.926 2.543,-5.926 c -0.094,0 -0.178,0.002 -0.264,0.004 M 2.279,0 H 4.561 C 4.496,0.857 4.264,1.502 3.859,1.926 3.463,2.352 2.932,2.566 2.279,2.568 V 4.316 H 2.355 C 3.34,4.316 4.18,4.115 4.885,3.695 5.586,3.279 6.113,2.744 6.463,2.09 6.814,1.434 6.99,0.762 6.99,0.078 6.99,-0.549 6.809,-0.965 6.445,-1.15 6.084,-1.336 5.578,-1.432 4.918,-1.432 H 2.279 Z" /></g><g
         transform="translate(346.6768,28.002)"
         id="g182"><path
           inkscape:connector-curvature="0"
           id="path184"
           style="fill:#ffffff;fill-opacity:1;fill-rule:evenodd;stroke:none"
           d="m 0,0 c 0,-0.68 0.105,-1.258 0.316,-1.736 0.215,-0.481 0.504,-0.84 0.87,-1.08 0.371,-0.248 0.775,-0.37 1.209,-0.37 H 2.404 V -5.061 C 2.156,-5.104 1.895,-5.129 1.621,-5.129 c -0.601,0 -1.16,0.127 -1.672,0.381 -0.513,0.256 -0.955,0.619 -1.33,1.094 -0.375,0.468 -0.66,1.027 -0.853,1.666 -0.192,0.64 -0.291,1.332 -0.291,2.076 0,1.57 0.38,2.795 1.152,3.676 0.766,0.877 1.779,1.314 3.033,1.314 0.262,0 0.51,-0.017 0.744,-0.049 V 3.217 H 2.375 C 1.918,3.217 1.506,3.09 1.141,2.828 0.777,2.566 0.498,2.188 0.299,1.699 0.1,1.215 0,0.646 0,0 m 2.404,-3.186 c 0.44,0.002 0.84,0.12 1.203,0.346 0.362,0.233 0.655,0.582 0.873,1.059 0.221,0.48 0.331,1.072 0.331,1.781 0,0.674 -0.11,1.248 -0.331,1.73 C 4.262,2.213 3.969,2.586 3.596,2.836 3.236,3.088 2.838,3.211 2.404,3.217 V 5.029 C 2.813,4.971 3.176,4.863 3.488,4.705 3.988,4.457 4.473,4.07 4.947,3.561 V 7.27 c 0,0.519 0.104,0.906 0.307,1.173 0.207,0.268 0.5,0.395 0.883,0.395 0.381,0 0.668,-0.121 0.877,-0.367 0.207,-0.241 0.31,-0.6 0.31,-1.069 V -3.689 c 0,-0.481 -0.109,-0.84 -0.33,-1.081 -0.224,-0.24 -0.512,-0.359 -0.857,-0.359 -0.346,0 -0.631,0.121 -0.854,0.373 -0.226,0.244 -0.336,0.604 -0.336,1.067 v 0.248 C 4.605,-3.834 4.275,-4.141 3.943,-4.385 3.615,-4.629 3.26,-4.812 2.879,-4.943 2.729,-4.988 2.572,-5.029 2.404,-5.061 Z" /></g><g
         transform="translate(363.6846,27.9336)"
         id="g186"><path
           inkscape:connector-curvature="0"
           id="path188"
           style="fill:#ffffff;fill-opacity:1;fill-rule:evenodd;stroke:none"
           d="m 0,0 c 0,-1.004 0.229,-1.771 0.682,-2.309 0.445,-0.519 1.015,-0.789 1.72,-0.808 v -1.885 c -0.127,0.02 -0.25,0.047 -0.373,0.082 -0.34,0.09 -0.629,0.215 -0.871,0.363 -0.236,0.151 -0.443,0.305 -0.613,0.467 -0.168,0.156 -0.391,0.397 -0.666,0.717 v -0.248 c 0,-0.477 -0.108,-0.832 -0.346,-1.08 -0.219,-0.24 -0.51,-0.36 -0.861,-0.36 -0.356,0 -0.641,0.12 -0.852,0.36 -0.213,0.248 -0.32,0.603 -0.32,1.08 V 7.361 c 0,0.506 0.105,0.891 0.309,1.151 0.211,0.267 0.492,0.394 0.863,0.394 0.389,0 0.685,-0.123 0.896,-0.375 0.205,-0.25 0.311,-0.603 0.311,-1.06 V 3.629 c 0.471,0.494 0.953,0.867 1.443,1.125 0.317,0.17 0.676,0.281 1.08,0.342 V 3.283 C 1.957,3.27 1.561,3.141 1.205,2.896 0.832,2.635 0.533,2.256 0.32,1.76 0.105,1.264 0,0.68 0,0 m 2.402,-3.117 h 0.084 c 0.633,0 1.178,0.277 1.633,0.824 0.461,0.551 0.688,1.338 0.688,2.361 0,0.668 -0.094,1.237 -0.282,1.719 C 4.332,2.266 4.062,2.635 3.711,2.896 3.363,3.158 2.951,3.285 2.486,3.285 c -0.029,0 -0.054,0 -0.084,-0.002 v 1.813 c 0.235,0.033 0.483,0.05 0.748,0.05 0.836,0 1.567,-0.199 2.2,-0.593 C 5.977,4.162 6.463,3.588 6.809,2.828 7.16,2.082 7.33,1.187 7.33,0.156 7.33,-0.611 7.236,-1.309 7.041,-1.941 6.848,-2.576 6.566,-3.129 6.197,-3.592 5.83,-4.061 5.381,-4.424 4.857,-4.68 4.332,-4.934 3.756,-5.061 3.123,-5.061 c -0.25,0 -0.486,0.022 -0.721,0.059 z" /></g><g
         transform="translate(375.1045,22.5605)"
         id="g190"><path
           inkscape:connector-curvature="0"
           id="path192"
           style="fill:#ffffff;fill-opacity:1;fill-rule:evenodd;stroke:none"
           d="M 0,0 0.234,0.562 -2.865,8.355 C -3.051,8.807 -3.15,9.131 -3.15,9.33 c 0,0.213 0.06,0.422 0.17,0.604 0.105,0.183 0.257,0.328 0.453,0.439 0.191,0.109 0.394,0.164 0.603,0.164 0.365,0 0.633,-0.113 0.82,-0.342 0.182,-0.23 0.348,-0.562 0.493,-0.99 L 1.514,3.012 3.529,8.77 c 0.162,0.468 0.309,0.832 0.436,1.099 0.129,0.262 0.264,0.44 0.41,0.529 0.145,0.096 0.346,0.139 0.611,0.139 0.19,0 0.371,-0.049 0.545,-0.156 C 5.711,10.285 5.846,10.146 5.937,9.975 6.035,9.807 6.084,9.625 6.084,9.434 6.059,9.324 6.016,9.154 5.965,8.939 5.908,8.719 5.836,8.496 5.76,8.281 L 2.48,-0.301 C 2.199,-1.064 1.922,-1.65 1.648,-2.08 1.385,-2.512 1.027,-2.84 0.578,-3.072 0.135,-3.301 -0.471,-3.418 -1.223,-3.418 c -0.736,0 -1.291,0.084 -1.658,0.238 -0.369,0.16 -0.551,0.451 -0.551,0.877 0,0.287 0.084,0.51 0.26,0.67 0.176,0.158 0.432,0.233 0.781,0.233 0.131,0 0.266,-0.018 0.395,-0.055 0.16,-0.035 0.299,-0.053 0.414,-0.053 0.287,0 0.518,0.039 0.68,0.131 0.168,0.078 0.316,0.231 0.449,0.441 C -0.322,-0.723 -0.17,-0.41 0,0" /></g><g
         transform="translate(421.6475,32.8809)"
         id="g194"><path
           inkscape:connector-curvature="0"
           id="path196"
           style="fill:#ffffff;fill-opacity:1;fill-rule:evenodd;stroke:none"
           d="m 0,0 h 0.6 v 0.754 c 0,0.789 0.103,1.408 0.304,1.875 0.192,0.461 0.535,0.803 1.008,1.01 0.481,0.215 1.129,0.32 1.963,0.32 1.463,0 2.199,-0.357 2.199,-1.076 C 6.074,2.652 5.996,2.451 5.842,2.281 5.689,2.117 5.51,2.031 5.299,2.031 5.199,2.031 5.027,2.051 4.793,2.092 4.553,2.125 4.352,2.145 4.182,2.145 3.727,2.145 3.438,2.012 3.311,1.744 3.182,1.477 3.113,1.092 3.113,0.6 V 0 H 3.732 C 4.693,0 5.174,-0.295 5.174,-0.867 5.174,-1.275 5.045,-1.539 4.787,-1.65 4.533,-1.76 4.182,-1.824 3.732,-1.824 H 3.113 v -6.655 c 0,-0.496 -0.119,-0.875 -0.353,-1.14 -0.233,-0.262 -0.541,-0.389 -0.918,-0.389 -0.352,0 -0.651,0.127 -0.885,0.389 -0.24,0.265 -0.357,0.644 -0.357,1.14 v 6.655 h -0.692 c -0.375,0 -0.658,0.092 -0.865,0.263 -0.203,0.166 -0.305,0.385 -0.305,0.655 C -1.262,-0.301 -0.842,0 0,0" /></g><g
         transform="translate(430.6318,26.5059)"
         id="g198"><path
           inkscape:connector-curvature="0"
           id="path200"
           style="fill:#ffffff;fill-opacity:1;fill-rule:evenodd;stroke:none"
           d="m 0,0 v -2.104 c 0,-0.505 -0.119,-0.892 -0.355,-1.148 -0.243,-0.254 -0.541,-0.381 -0.918,-0.381 -0.358,0 -0.661,0.127 -0.891,0.387 -0.231,0.26 -0.348,0.639 -0.348,1.142 v 7.002 c 0,1.131 0.405,1.694 1.219,1.694 0.418,0 0.725,-0.129 0.906,-0.395 0.184,-0.26 0.283,-0.652 0.305,-1.17 0.299,0.518 0.609,0.91 0.926,1.17 C 1.16,6.463 1.58,6.592 2.111,6.592 2.637,6.592 3.15,6.463 3.648,6.197 4.148,5.937 4.395,5.584 4.395,5.152 4.395,4.842 4.293,4.59 4.08,4.387 3.865,4.189 3.639,4.09 3.391,4.09 3.297,4.09 3.076,4.146 2.723,4.256 2.371,4.373 2.059,4.43 1.785,4.43 1.416,4.43 1.117,4.332 0.889,4.135 0.654,3.945 0.471,3.658 0.338,3.279 0.213,2.896 0.123,2.441 0.076,1.916 0.025,1.395 0,0.754 0,0" /></g><g
         transform="translate(438.0322,28.7988)"
         id="g202"><path
           inkscape:connector-curvature="0"
           id="path204"
           style="fill:#ffffff;fill-opacity:1;fill-rule:evenodd;stroke:none"
           d="M 0,0 H 2.277 V -1.432 H 0 C 0.008,-2 0.117,-2.504 0.34,-2.939 c 0.228,-0.44 0.523,-0.766 0.9,-0.983 0.315,-0.195 0.664,-0.301 1.037,-0.326 v -1.674 c -1.49,0.049 -2.66,0.512 -3.504,1.379 -0.896,0.922 -1.347,2.172 -1.347,3.746 0,0.746 0.111,1.436 0.334,2.072 0.222,0.635 0.541,1.182 0.965,1.637 0.423,0.451 0.947,0.799 1.566,1.045 0.6,0.232 1.26,0.352 1.986,0.359 V 2.568 H 2.273 C 1.648,2.568 1.133,2.354 0.723,1.924 0.328,1.486 0.084,0.846 0,0 m 2.277,-5.922 v 1.674 c 0.061,-0.006 0.127,-0.01 0.19,-0.01 0.301,0 0.574,0.035 0.822,0.108 0.25,0.064 0.494,0.181 0.725,0.334 0.236,0.146 0.449,0.308 0.646,0.478 0.195,0.174 0.457,0.406 0.76,0.701 0.135,0.11 0.32,0.168 0.56,0.168 0.25,0 0.463,-0.07 0.624,-0.213 0.158,-0.14 0.238,-0.341 0.238,-0.597 C 6.842,-3.508 6.754,-3.77 6.578,-4.08 6.395,-4.381 6.127,-4.676 5.775,-4.953 5.412,-5.232 4.961,-5.463 4.414,-5.65 3.869,-5.832 3.248,-5.926 2.541,-5.926 c -0.092,0 -0.176,0.002 -0.264,0.004 m 0,5.922 h 2.28 C 4.492,0.857 4.264,1.502 3.863,1.926 3.463,2.352 2.932,2.566 2.277,2.568 v 1.748 h 0.084 c 0.977,0 1.815,-0.201 2.52,-0.621 C 5.586,3.279 6.113,2.744 6.467,2.09 6.814,1.434 6.992,0.762 6.992,0.078 6.992,-0.549 6.811,-0.965 6.445,-1.15 6.086,-1.336 5.578,-1.432 4.918,-1.432 H 2.277 Z" /></g><g
         transform="translate(449.2393,28.7988)"
         id="g206"><path
           inkscape:connector-curvature="0"
           id="path208"
           style="fill:#ffffff;fill-opacity:1;fill-rule:evenodd;stroke:none"
           d="M 0,0 H 2.283 V -1.432 H 0 C 0.01,-2 0.125,-2.504 0.346,-2.939 c 0.226,-0.44 0.521,-0.766 0.896,-0.983 0.32,-0.195 0.666,-0.301 1.041,-0.326 v -1.674 c -1.49,0.049 -2.658,0.512 -3.504,1.379 -0.9,0.922 -1.347,2.172 -1.347,3.746 0,0.746 0.115,1.436 0.33,2.072 0.224,0.635 0.545,1.182 0.97,1.637 0.42,0.451 0.94,0.799 1.567,1.045 0.597,0.232 1.263,0.352 1.984,0.359 V 2.568 H 2.277 C 1.65,2.568 1.137,2.354 0.734,1.924 0.332,1.486 0.086,0.846 0,0 m 2.283,-5.922 v 1.674 c 0.059,-0.008 0.121,-0.01 0.186,-0.01 0.306,0 0.574,0.035 0.822,0.108 0.254,0.064 0.494,0.181 0.725,0.334 0.234,0.146 0.451,0.308 0.65,0.478 0.193,0.174 0.453,0.406 0.764,0.701 0.131,0.11 0.308,0.168 0.55,0.168 0.264,0 0.473,-0.07 0.631,-0.213 0.153,-0.14 0.235,-0.341 0.235,-0.597 C 6.846,-3.508 6.76,-3.77 6.582,-4.08 6.404,-4.381 6.131,-4.676 5.771,-4.953 5.414,-5.232 4.961,-5.463 4.42,-5.65 3.875,-5.832 3.252,-5.926 2.543,-5.926 c -0.086,0 -0.174,0.002 -0.26,0.004 M 2.283,0 H 4.561 C 4.494,0.857 4.264,1.502 3.871,1.926 3.465,2.352 2.939,2.566 2.283,2.568 v 1.748 h 0.074 c 0.985,0 1.83,-0.201 2.532,-0.621 C 5.588,3.279 6.121,2.744 6.471,2.09 6.818,1.434 6.994,0.762 6.994,0.078 6.994,-0.549 6.812,-0.965 6.453,-1.15 6.092,-1.336 5.586,-1.432 4.922,-1.432 H 2.283 Z" /></g><g
         transform="translate(462.9482,31.2168)"
         id="g210"><path
           inkscape:connector-curvature="0"
           id="path212"
           style="fill:#ffffff;fill-opacity:1;fill-rule:evenodd;stroke:none"
           d="m 0,0 c -0.664,-0.016 -1.227,-0.287 -1.686,-0.816 -0.48,-0.549 -0.716,-1.35 -0.716,-2.416 0,-0.998 0.236,-1.774 0.715,-2.332 C -1.24,-6.105 -0.674,-6.383 0,-6.4 v -1.893 c -0.428,0.064 -0.805,0.193 -1.125,0.385 -0.49,0.285 -0.959,0.707 -1.4,1.271 v -3.777 c 0,-1.107 -0.405,-1.66 -1.2,-1.66 -0.478,0 -0.789,0.144 -0.947,0.429 -0.15,0.284 -0.226,0.704 -0.226,1.25 V 0.459 c 0,0.477 0.107,0.834 0.308,1.07 0.215,0.237 0.496,0.352 0.865,0.352 0.352,0 0.641,-0.115 0.866,-0.361 0.226,-0.243 0.334,-0.594 0.334,-1.045 V 0.17 c 0.478,0.582 0.97,1.014 1.48,1.287 0.32,0.17 0.668,0.287 1.045,0.35 z M 2.404,-3.186 C 2.404,-2.52 2.305,-1.953 2.1,-1.475 1.896,-0.998 1.619,-0.629 1.258,-0.379 0.904,-0.121 0.502,0.002 0.066,0.002 L 0,0 V 1.807 C 0.217,1.846 0.443,1.863 0.68,1.863 1.457,1.863 2.166,1.664 2.822,1.266 3.475,0.861 3.988,0.283 4.369,-0.484 4.74,-1.25 4.93,-2.158 4.93,-3.215 4.93,-3.984 4.818,-4.695 4.605,-5.348 4.383,-5.99 4.086,-6.539 3.705,-6.975 3.322,-7.41 2.873,-7.756 2.361,-7.988 1.838,-8.225 1.281,-8.344 0.68,-8.344 0.443,-8.344 0.213,-8.326 0,-8.293 V -6.4 h 0.066 c 0.422,0 0.805,0.121 1.163,0.369 0.355,0.24 0.64,0.599 0.853,1.086 0.209,0.488 0.322,1.074 0.322,1.759" /></g><g
         transform="translate(471.1729,34.2676)"
         id="g214"><path
           inkscape:connector-curvature="0"
           id="path216"
           style="fill:#ffffff;fill-opacity:1;fill-rule:evenodd;stroke:none"
           d="m 0,0 c -0.357,0 -0.658,0.113 -0.904,0.324 -0.244,0.215 -0.371,0.518 -0.371,0.912 0,0.354 0.127,0.651 0.379,0.881 C -0.643,2.35 -0.342,2.461 0,2.461 0.318,2.461 0.609,2.357 0.861,2.152 1.111,1.937 1.238,1.635 1.238,1.236 1.238,0.85 1.115,0.549 0.869,0.328 0.627,0.117 0.332,0 0,0 m 1.238,-2.592 v -7.273 c 0,-0.504 -0.123,-0.883 -0.359,-1.143 -0.238,-0.26 -0.543,-0.387 -0.912,-0.387 -0.367,0 -0.664,0.129 -0.899,0.399 -0.234,0.262 -0.343,0.642 -0.343,1.131 v 7.195 c 0,0.498 0.109,0.877 0.343,1.123 0.235,0.252 0.532,0.377 0.899,0.377 0.369,0 0.674,-0.125 0.912,-0.377 0.236,-0.246 0.359,-0.599 0.359,-1.045" /></g><g
         transform="translate(481.2764,24.0254)"
         id="g218"><path
           inkscape:connector-curvature="0"
           id="path220"
           style="fill:#ffffff;fill-opacity:1;fill-rule:evenodd;stroke:none"
           d="M 0,0 -2.225,3.648 -3.592,2.354 V 0.357 c 0,-0.484 -0.121,-0.855 -0.371,-1.121 -0.26,-0.261 -0.555,-0.388 -0.885,-0.388 -0.388,0 -0.693,0.127 -0.912,0.386 -0.222,0.26 -0.33,0.639 -0.33,1.143 V 11.1 c 0,0.562 0.1,0.986 0.317,1.277 0.222,0.293 0.527,0.437 0.925,0.437 0.389,0 0.696,-0.126 0.924,-0.394 0.221,-0.268 0.332,-0.654 0.332,-1.174 V 5.15 l 2.836,2.967 c 0.346,0.367 0.613,0.621 0.797,0.754 0.186,0.137 0.41,0.201 0.672,0.201 0.316,0 0.576,-0.095 0.789,-0.297 0.203,-0.201 0.31,-0.449 0.31,-0.75 0,-0.367 -0.339,-0.861 -1.025,-1.476 L -0.543,5.328 2.031,1.27 C 2.229,0.969 2.365,0.74 2.443,0.584 2.531,0.43 2.564,0.279 2.564,0.141 2.564,-0.262 2.457,-0.574 2.238,-0.807 2.023,-1.033 1.73,-1.152 1.381,-1.152 1.074,-1.152 0.834,-1.07 0.668,-0.902 0.506,-0.738 0.281,-0.434 0,0" /></g><g
         transform="translate(487.4912,22.873)"
         id="g222"><path
           inkscape:connector-curvature="0"
           id="path224"
           style="fill:#ffffff;fill-opacity:1;fill-rule:evenodd;stroke:none"
           d="m 0,0 c -0.379,0 -0.707,0.121 -0.98,0.373 -0.278,0.24 -0.424,0.586 -0.424,1.031 0,0.373 0.138,0.696 0.398,0.965 0.266,0.27 0.596,0.404 0.979,0.404 0.39,0 0.718,-0.134 0.99,-0.398 C 1.238,2.109 1.373,1.785 1.373,1.404 1.373,0.963 1.238,0.617 0.963,0.373 0.691,0.121 0.369,0 0,0" /></g><g
         transform="translate(500.7529,25.9883)"
         id="g226"><path
           inkscape:connector-curvature="0"
           id="path228"
           style="fill:#ffffff;fill-opacity:1;fill-rule:evenodd;stroke:none"
           d="m 0,0 c 0,-0.312 -0.1,-0.645 -0.285,-1.004 -0.188,-0.361 -0.473,-0.697 -0.852,-1.021 -0.384,-0.323 -0.871,-0.58 -1.455,-0.774 -0.582,-0.197 -1.242,-0.297 -1.969,-0.297 -1.556,0 -2.767,0.457 -3.64,1.358 -0.871,0.904 -1.311,2.121 -1.311,3.64 0,1.039 0.203,1.952 0.604,2.744 0.394,0.79 0.972,1.401 1.732,1.833 0.754,0.435 1.655,0.648 2.703,0.648 0.651,0 1.244,-0.092 1.793,-0.281 0.545,-0.192 1.006,-0.434 1.381,-0.739 0.379,-0.3 0.672,-0.621 0.871,-0.961 0.198,-0.345 0.297,-0.66 0.297,-0.955 0,-0.306 -0.113,-0.558 -0.342,-0.767 -0.222,-0.207 -0.492,-0.309 -0.81,-0.309 -0.209,0 -0.389,0.053 -0.522,0.158 C -1.939,3.379 -2.1,3.551 -2.27,3.797 -2.58,4.26 -2.898,4.611 -3.232,4.844 -3.564,5.08 -3.992,5.191 -4.506,5.191 -5.25,5.191 -5.848,4.904 -6.303,4.322 -6.756,3.744 -6.988,2.953 -6.988,1.945 c 0,-0.474 0.054,-0.91 0.177,-1.308 0.114,-0.393 0.286,-0.731 0.508,-1.012 0.211,-0.273 0.491,-0.492 0.799,-0.631 0.313,-0.148 0.664,-0.221 1.031,-0.221 0.502,0 0.938,0.122 1.295,0.35 0.362,0.236 0.68,0.588 0.957,1.07 0.155,0.286 0.321,0.502 0.496,0.662 0.176,0.161 0.393,0.239 0.651,0.239 0.312,0 0.562,-0.115 0.769,-0.35 C -0.107,0.508 0,0.26 0,0" /></g><g
         transform="translate(507.3525,31.2422)"
         id="g230"><path
           inkscape:connector-curvature="0"
           id="path232"
           style="fill:#ffffff;fill-opacity:1;fill-rule:evenodd;stroke:none"
           d="m 0,0 h -0.02 c -0.486,0 -0.921,-0.129 -1.296,-0.383 -0.37,-0.26 -0.663,-0.633 -0.87,-1.127 -0.199,-0.5 -0.302,-1.084 -0.302,-1.748 0,-0.66 0.101,-1.23 0.302,-1.719 0.202,-0.492 0.483,-0.867 0.856,-1.128 0.373,-0.26 0.812,-0.389 1.31,-0.389 H 0 v -1.875 h -0.02 c -0.755,0 -1.441,0.121 -2.054,0.373 -0.602,0.24 -1.129,0.59 -1.578,1.049 -0.44,0.463 -0.782,1 -1.008,1.621 -0.233,0.625 -0.348,1.316 -0.348,2.068 0,0.764 0.115,1.461 0.358,2.094 0.222,0.631 0.562,1.174 0.994,1.621 0.439,0.449 0.963,0.795 1.582,1.037 0.625,0.246 1.306,0.361 2.054,0.361 H 0 Z m 2.482,-3.258 c 0,1.028 -0.228,1.828 -0.681,2.399 C 1.359,-0.295 0.756,-0.008 0,0 V 1.855 C 0.76,1.854 1.441,1.729 2.057,1.49 2.678,1.244 3.207,0.896 3.652,0.441 c 0.442,-0.457 0.778,-1 1.004,-1.625 0.233,-0.627 0.35,-1.316 0.35,-2.074 0,-0.744 -0.117,-1.437 -0.35,-2.068 C 4.42,-5.963 4.078,-6.506 3.639,-6.957 3.199,-7.41 2.672,-7.762 2.057,-8.01 1.445,-8.248 0.76,-8.367 0,-8.369 v 1.875 c 0.756,0.004 1.359,0.289 1.801,0.861 0.453,0.572 0.681,1.367 0.681,2.375" /></g><g
         transform="translate(522.7041,27.8027)"
         id="g234"><path
           inkscape:connector-curvature="0"
           id="path236"
           style="fill:#ffffff;fill-opacity:1;fill-rule:evenodd;stroke:none"
           d="M 0,0 V -3.344 C 0,-3.869 -0.119,-4.27 -0.363,-4.531 -0.6,-4.801 -0.914,-4.93 -1.312,-4.93 c -0.379,0 -0.688,0.129 -0.922,0.399 -0.239,0.261 -0.358,0.662 -0.358,1.187 v 4.01 c 0,0.635 -0.021,1.117 -0.06,1.471 C -2.697,2.486 -2.816,2.773 -3.004,3 -3.191,3.225 -3.496,3.332 -3.908,3.332 -4.727,3.332 -5.271,3.053 -5.527,2.486 -5.789,1.922 -5.918,1.113 -5.918,0.055 v -3.399 c 0,-0.521 -0.125,-0.918 -0.361,-1.185 -0.235,-0.268 -0.547,-0.401 -0.934,-0.401 -0.383,0 -0.691,0.133 -0.935,0.401 -0.247,0.267 -0.366,0.664 -0.366,1.185 v 7.199 c 0,0.467 0.112,0.829 0.325,1.075 0.222,0.24 0.509,0.365 0.865,0.365 0.342,0 0.633,-0.113 0.861,-0.342 0.231,-0.23 0.346,-0.553 0.346,-0.957 V 3.76 c 0.437,0.515 0.9,0.904 1.402,1.15 0.498,0.242 1.047,0.367 1.654,0.367 0.637,0 1.178,-0.125 1.631,-0.377 0.453,-0.252 0.83,-0.632 1.125,-1.14 0.422,0.51 0.879,0.896 1.366,1.144 0.484,0.248 1.021,0.373 1.611,0.373 0.687,0 1.277,-0.138 1.777,-0.402 C 4.947,4.598 5.318,4.217 5.559,3.717 5.779,3.254 5.887,2.541 5.887,1.564 V -3.344 C 5.887,-3.869 5.76,-4.27 5.521,-4.531 5.291,-4.801 4.975,-4.93 4.576,-4.93 c -0.375,0 -0.691,0.133 -0.93,0.401 -0.246,0.267 -0.369,0.664 -0.369,1.185 v 4.231 c 0,0.535 -0.019,0.97 -0.066,1.301 C 3.164,2.508 3.041,2.785 2.84,3.004 2.637,3.225 2.326,3.332 1.918,3.332 1.584,3.332 1.27,3.234 0.973,3.039 0.678,2.844 0.441,2.58 0.271,2.248 0.09,1.824 0,1.074 0,0" /></g><g
         transform="translate(401.8311,39.582)"
         id="g238"><path
           inkscape:connector-curvature="0"
           id="path240"
           style="fill:#ffffff;fill-opacity:1;fill-rule:evenodd;stroke:none"
           d="m 0,0 c -0.051,0.166 -0.102,0.324 -0.16,0.484 0.846,0.077 1.416,1.09 1,1.84 C 0.641,2.775 0.18,3.016 -0.285,3.023 H -0.34 C -0.732,3.016 -1.115,2.848 -1.342,2.496 -1.879,1.814 -1.461,0.732 -0.633,0.508 c 0.049,-0.168 0.094,-0.342 0.149,-0.52 -1.266,-0.086 -2.561,-0.369 -3.621,-1.09 0.111,-0.3 0.222,-0.613 0.33,-0.923 2.14,0.941 4.545,0.738 6.804,0.511 0.076,0.299 0.149,0.598 0.229,0.897 C 2.234,-0.156 1.113,0.012 0,0" /></g><g
         transform="translate(414.5752,36.125)"
         id="g242"><path
           inkscape:connector-curvature="0"
           id="path244"
           style="fill:#ffffff;fill-opacity:1;fill-rule:evenodd;stroke:none"
           d="m 0,0 c -0.336,-0.174 -0.402,-0.584 -0.379,-0.924 -0.379,-0.369 -0.199,-0.92 -0.24,-1.377 -0.084,-0.258 -0.393,-0.291 -0.613,-0.387 -0.291,0.452 -0.608,0.883 -1.004,1.256 l 0.004,0.016 c -0.434,0.408 -0.899,0.775 -1.393,1.096 -0.396,-0.422 -0.812,-0.84 -1.193,-1.285 0.752,-0.829 1.451,-1.717 2.068,-2.657 0.428,-0.713 0.768,-1.474 1.061,-2.25 0.638,0.326 1.267,0.666 1.908,1.004 -0.34,0.778 -0.719,1.535 -1.131,2.279 0.285,0.153 0.66,0.299 0.703,0.67 0.033,0.407 -0.061,0.846 0.188,1.205 0.49,-0.324 1.238,0.04 1.246,0.639 C 1.293,-0.096 0.514,0.348 0,0" /></g><g
         transform="translate(397.3369,36.5664)"
         id="g246"><path
           inkscape:connector-curvature="0"
           id="path248"
           style="fill:#ffffff;fill-opacity:1;fill-rule:evenodd;stroke:none"
           d="m 0,0 v -2.283 c -0.58,0.002 -1.154,-0.129 -1.672,-0.405 -1.058,-0.568 -1.807,-1.699 -1.859,-2.91 -0.071,-0.97 0.316,-1.935 0.961,-2.652 0.652,-0.715 1.607,-1.094 2.57,-1.094 v -3.078 c -2.248,0.115 -4.461,0.6 -6.643,1.147 -0.4,2.019 -0.408,4.203 0.473,6.103 0.92,2.109 2.734,3.744 4.82,4.664 0.444,0.19 0.891,0.36 1.35,0.508 m 10.049,-7.445 h -0.008 c -0.613,-0.051 -1.203,0.236 -1.619,0.67 -0.295,0.373 -0.547,0.798 -0.588,1.285 -0.145,1.051 0.602,2.14 1.629,2.386 0.195,0.057 0.387,0.077 0.586,0.071 v 2.402 C 8.775,0.256 7.258,0.816 5.699,0.812 3.773,0.836 1.834,0.59 0,0 v -2.283 c 0.336,0 0.678,-0.047 1.006,-0.139 0.369,-0.092 0.709,-0.266 1.025,-0.48 C 2.686,-3.365 3.18,-4.047 3.398,-4.822 3.703,-5.816 3.508,-6.928 2.924,-7.787 2.51,-8.391 1.914,-8.861 1.229,-9.125 0.838,-9.271 0.416,-9.344 0,-9.344 v -3.078 l 0.094,-0.004 c 2.252,-0.07 4.519,-0.127 6.752,0.188 1.078,0.146 2.15,0.355 3.203,0.64 z m 2.195,1.847 c -0.152,-1.035 -1.135,-1.914 -2.195,-1.847 v -4.153 c 1.941,0.518 3.822,1.289 5.556,2.303 0,0 -0.369,2.022 -1.806,4.229 -0.832,1.378 -1.729,2.746 -2.955,3.808 -0.254,0.225 -0.518,0.432 -0.795,0.627 v -2.402 c 0.267,-0.006 0.535,-0.057 0.789,-0.117 0.971,-0.342 1.607,-1.44 1.406,-2.448" /></g><g
         transform="translate(391.1963,34.5742)"
         id="g250"><path
           inkscape:connector-curvature="0"
           id="path252"
           style="fill:#ffffff;fill-opacity:1;fill-rule:evenodd;stroke:none"
           d="m 0,0 c -0.898,-0.541 -1.637,-1.305 -2.252,-2.145 -0.18,0.334 -0.234,0.731 -0.469,1.028 -0.133,0.18 -0.377,0.109 -0.56,0.111 -0.239,-0.025 -0.473,0.039 -0.694,0.11 0.26,0.367 0.19,0.935 -0.211,1.175 -0.431,0.309 -1.095,0.041 -1.21,-0.468 -0.178,-0.561 0.419,-1.123 0.966,-0.979 0.291,-0.434 0.819,-0.363 1.272,-0.377 0.201,-0.351 0.355,-0.736 0.615,-1.055 -0.484,-0.947 -0.756,-2.009 -0.779,-3.078 0.623,-0.256 1.236,-0.523 1.859,-0.781 0.029,0.678 0.109,1.344 0.209,2.002 0.209,1.445 1.045,2.699 2.033,3.734 C 0.529,-0.465 0.26,-0.242 0,0" /></g><g
         transform="translate(405.6514,23.6973)"
         id="g254"><path
           inkscape:connector-curvature="0"
           id="path256"
           style="fill:#ffffff;fill-opacity:1;fill-rule:evenodd;stroke:none"
           d="m 0,0 c -2.279,-0.496 -4.631,-0.643 -6.959,-0.543 -1.576,0.082 -3.148,0.229 -4.689,0.57 -1.088,0.221 -2.157,0.537 -3.231,0.842 0.17,-1.369 0.725,-2.678 1.518,-3.81 0.933,-1.311 2.179,-2.518 3.732,-3.006 1.141,-0.303 2.483,-0.69 4.695,-0.699 h 0.227 l 0.228,0.001 c 2.059,0.04 4.088,0.299 5.895,1.067 1.164,0.5 2.26,1.185 3.197,2.039 0.807,0.768 1.446,1.719 1.885,2.74 C 6.922,0.17 7.305,1.912 7.262,2.799 5.031,1.531 2.541,0.426 0,0" /></g></g></g></svg>